# Alias OBJ Model File
# Exported from SketchUp, (c) 2000-2012 Trimble Navigation Limited
# File units = millimeters

mtllib casing relayer farg.mtl

g Mesh1 Model

usemtl Leather_Blue
v 106 0 -68
vt -0.0695538 0
vn 0 0 -1
v 0 0 -68
vt 0 0
v 0 20 -68
vt 0 0.0131234
v 78 20 -68
vt -0.0511811 0.0131234
v 78 9 -68
vt -0.0511811 0.00590551
v 106 9 -68
vt -0.0695538 0.00590551
f 1/1/1 2/2/1 3/3/1 4/4/1 5/5/1 6/6/1 

v 0 0 -0
vn 0 -1 -0
vt 0 0.0446194
vt -0.0695538 0.0446194
v 106 0 -0
f 7/2/2 2/7/2 1/8/2 8/1/2 

vt -0.0446194 0
vn -1 0 -0
v 0 20 -0
vt -0.0446194 0.0131234
f 2/9/3 7/2/3 9/3/3 3/10/3 

vn 0 0 1
vt 0.0695538 0
v 106 20 -0
vt 0.0695538 0.0131234
f 7/2/4 8/11/4 10/12/4 9/3/4 

vn 1 0 -0
vt 0.0446194 0
vt 0.0446194 0.00590551
v 106 9 -55
vt 0.0360892 0.00590551
v 106 20 -55
vt 0.0360892 0.0131234
v 106 20 -40
vt 0.0262467 0.0131234
v 106 6 -40
vt 0.0262467 0.00393701
v 106 6 -28
vt 0.0183727 0.00393701
v 106 20 -28
vt 0.0183727 0.0131234
f 8/2/5 1/13/5 6/14/5 11/15/5 12/16/5 13/17/5 14/18/5 15/19/5 16/20/5 10/3/5 

vt 0.0695538 0.0446194
vn 0 1 -0
vt 0.0511811 0.0446194
v 78 9 -66
vt 0.0511811 0.0433071
v 104 9 -66
vt 0.0682415 0.0433071
v 104 9 -55
vt 0.0682415 0.0360892
vt 0.0695538 0.0360892
f 6/21/6 5/22/6 17/23/6 18/24/6 19/25/6 11/26/6 

vt 0.0446194 0.0131234
v 78 20 -66
vt 0.0433071 0.0131234
vt 0.0433071 0.00590551
f 4/27/5 20/28/5 17/29/5 5/14/5 

vt 0.0695538 0.0183727
v 104 20 -28
vt 0.0682415 0.0183727
v 104 20 -2
vt 0.0682415 0.00131234
v 2 20 -2
vt 0.00131234 0.00131234
v 2 20 -66
vt 0.00131234 0.0433071
f 4/22/6 3/7/6 9/2/6 10/11/6 16/30/6 21/31/6 22/32/6 23/33/6 24/34/6 20/23/6 

vt -0.0682415 0.0131234
vt -0.0695538 0.0131234
vt -0.0695538 0.00393701
v 104 6 -28
vt -0.0682415 0.00393701
f 21/35/1 16/36/1 15/37/1 25/38/1 

v 104 6 -40
vt 0.0682415 0.0262467
vt 0.0695538 0.0262467
f 26/39/6 25/31/6 15/30/6 14/40/6 

v 104 5 -23
vt -0.0150919 0.00328084
v 104 5 -2
vt -0.00131234 0.00328084
vt -0.00131234 0.0131234
vt -0.0183727 0.0131234
vt -0.0183727 0.00393701
vt -0.0262467 0.00393701
v 104 20 -40
vt -0.0262467 0.0131234
v 104 20 -55
vt -0.0360892 0.0131234
vt -0.0360892 0.00590551
vt -0.0433071 0.00590551
v 104 5 -66
vt -0.0433071 0.00328084
v 104 5 -45
vt -0.0295276 0.00328084
v 104 1 -45
vt -0.0295276 0.000656168
v 104 1 -23
vt -0.0150919 0.000656168
f 27/41/3 28/42/3 22/43/3 21/44/3 25/45/3 26/46/3 29/47/3 30/48/3 19/49/3 18/50/3 31/51/3 32/52/3 33/53/3 34/54/3 

vt 0.0682415 0.0150919
v 81 5 -23
vt 0.0531496 0.0150919
v 81 5 -45
vt 0.0531496 0.0295276
vt 0.0682415 0.0295276
v 2 5 -66
v 2 5 -2
f 28/32/6 27/55/6 35/56/6 36/57/6 32/58/6 31/24/6 37/34/6 38/33/6 

vt -0.0531496 0.00328084
vt -0.0682415 0.00328084
vt -0.0682415 0.000656168
v 81 1 -23
vt -0.0531496 0.000656168
f 35/59/1 27/60/1 34/61/1 39/62/1 

v 81 1 -45
f 34/55/6 33/58/6 40/57/6 39/56/6 

vt 0.0682415 0.00328084
vt 0.0531496 0.00328084
vt 0.0531496 0.000656168
vt 0.0682415 0.000656168
f 32/63/4 36/64/4 40/65/4 33/66/4 

vt 0.0295276 0.00328084
vt 0.0150919 0.00328084
vt 0.0150919 0.000656168
vt 0.0295276 0.000656168
f 36/67/5 35/68/5 39/69/5 40/70/5 

vt 0.00131234 0.00328084
vt 0.0682415 0.00590551
vt 0.0511811 0.00590551
vt 0.0511811 0.0131234
vt 0.00131234 0.0131234
f 37/71/4 31/63/4 18/72/4 17/73/4 20/74/4 24/75/4 

vt 0.0433071 0.00328084
f 38/71/5 37/76/5 24/28/5 23/75/5 

f 28/60/1 38/42/1 23/43/1 22/35/1 

vt 0.0682415 0.0131234
vt 0.0682415 0.00393701
vt 0.0695538 0.00393701
f 13/12/4 29/77/4 26/78/4 14/79/4 

f 13/40/6 12/26/6 30/25/6 29/39/6 

vt -0.0682415 0.00590551
f 30/35/1 12/36/1 11/6/1 19/80/1 

