# Alias OBJ Model File
# Exported from SketchUp, (c) 2000-2012 Trimble Navigation Limited
# File units = millimeters

mtllib casing central farg.mtl

g Mesh1 Model

usemtl Leather_Blue
v 106 0 -68
vt -0.0695538 0
vn 0 0 -1
v 0 0 -68
vt 0 0
v 0 9 -68
vt 0 0.00590551
v 32 9 -68
vt -0.0209974 0.00590551
v 32 20 -68
vt -0.0209974 0.0131234
v 78 20 -68
vt -0.0511811 0.0131234
v 78 9 -68
vt -0.0511811 0.00590551
v 106 9 -68
vt -0.0695538 0.00590551
f 1/1/1 2/2/1 3/3/1 4/4/1 5/5/1 6/6/1 7/7/1 8/8/1 

v 0 0 -0
vn 0 -1 -0
vt 0 0.0446194
vt -0.0695538 0.0446194
v 106 0 -0
f 9/2/2 2/9/2 1/10/2 10/1/2 

vt -0.0446194 0
vn -1 0 -0
v 0 20 -0
vt 0 0.0131234
v 0 20 -40
vt -0.0262467 0.0131234
v 0 9 -40
vt -0.0262467 0.00590551
vt -0.0446194 0.00590551
f 2/11/3 9/2/3 11/12/3 12/13/3 13/14/3 3/15/3 

vn 0 0 1
vt 0.0695538 0
v 106 20 -0
vt 0.0695538 0.0131234
f 9/2/4 10/16/4 14/17/4 11/12/4 

vn 1 0 -0
vt 0.0446194 0
vt 0.0446194 0.00590551
v 106 9 -55
vt 0.0360892 0.00590551
v 106 20 -55
vt 0.0360892 0.0131234
v 106 20 -40
vt 0.0262467 0.0131234
v 106 6 -40
vt 0.0262467 0.00393701
v 106 6 -28
vt 0.0183727 0.00393701
v 106 20 -28
vt 0.0183727 0.0131234
f 10/2/5 1/18/5 8/19/5 15/20/5 16/21/5 17/22/5 18/23/5 19/24/5 20/25/5 14/12/5 

vt 0.0695538 0.0446194
vn 0 1 -0
vt 0.0511811 0.0446194
v 78 9 -66
vt 0.0511811 0.0433071
v 104 9 -66
vt 0.0682415 0.0433071
v 104 9 -55
vt 0.0682415 0.0360892
vt 0.0695538 0.0360892
f 8/26/6 7/27/6 21/28/6 22/29/6 23/30/6 15/31/6 

vt 0.0446194 0.0131234
v 78 20 -66
vt 0.0433071 0.0131234
vt 0.0433071 0.00590551
f 6/32/5 24/33/5 21/34/5 7/19/5 

v 32 20 -66
vt 0.0209974 0.0433071
vt 0.0209974 0.0446194
f 25/35/6 24/28/6 6/27/6 5/36/6 

v 2 5 -66
vt 0.00131234 0.00328084
v 104 5 -66
vt 0.0682415 0.00328084
vt 0.0682415 0.00590551
vt 0.0511811 0.00590551
vt 0.0511811 0.0131234
vt 0.0209974 0.0131234
v 32 9 -66
vt 0.0209974 0.00590551
v 2 9 -66
vt 0.00131234 0.00590551
f 26/37/4 27/38/4 22/39/4 21/40/4 24/41/4 25/42/4 28/43/4 29/44/4 

v 104 5 -2
vt 0.0682415 0.00131234
v 104 5 -23
vt 0.0682415 0.0150919
v 81 5 -23
vt 0.0531496 0.0150919
v 81 5 -45
vt 0.0531496 0.0295276
v 104 5 -45
vt 0.0682415 0.0295276
vt 0.00131234 0.0433071
v 2 5 -2
vt 0.00131234 0.00131234
f 30/45/6 31/46/6 32/47/6 33/48/6 34/49/6 27/29/6 26/50/6 35/51/6 

vt -0.0150919 0.00328084
vt -0.00131234 0.00328084
v 104 20 -2
vt -0.00131234 0.0131234
v 104 20 -28
vt -0.0183727 0.0131234
v 104 6 -28
vt -0.0183727 0.00393701
v 104 6 -40
vt -0.0262467 0.00393701
v 104 20 -40
v 104 20 -55
vt -0.0360892 0.0131234
vt -0.0360892 0.00590551
vt -0.0433071 0.00590551
vt -0.0433071 0.00328084
vt -0.0295276 0.00328084
v 104 1 -45
vt -0.0295276 0.000656168
v 104 1 -23
vt -0.0150919 0.000656168
f 31/52/3 30/53/3 36/54/3 37/55/3 38/56/3 39/57/3 40/13/3 41/58/3 23/59/3 22/60/3 27/61/3 34/62/3 42/63/3 43/64/3 

vt -0.0682415 0.00328084
v 2 20 -2
vt -0.0682415 0.0131234
f 30/65/1 35/53/1 44/54/1 36/66/1 

vt 0.0433071 0.00328084
v 2 9 -40
vt 0.0262467 0.00590551
v 2 20 -40
vt 0.00131234 0.0131234
f 35/37/5 26/67/5 29/34/5 45/68/5 46/22/5 44/69/5 

vt 0 0.0262467
vt 0.00131234 0.0262467
f 3/9/6 13/70/6 45/71/6 29/50/6 28/35/6 4/36/6 

vt -0.00131234 0.00590551
f 12/12/1 46/54/1 45/72/1 13/3/1 

vt 0.0695538 0.0183727
vt 0.0682415 0.0183727
f 44/51/6 46/71/6 12/70/6 11/2/6 14/16/6 20/73/6 37/74/6 36/45/6 

vt -0.0695538 0.0131234
vt -0.0695538 0.00393701
vt -0.0682415 0.00393701
f 37/66/1 20/75/1 19/76/1 38/77/1 

vt 0.0682415 0.0262467
vt 0.0695538 0.0262467
f 39/78/6 38/74/6 19/73/6 18/79/6 

vt 0.0682415 0.0131234
vt 0.0682415 0.00393701
vt 0.0695538 0.00393701
f 17/17/4 40/80/4 39/81/4 18/82/4 

f 17/79/6 16/31/6 41/30/6 40/78/6 

vt -0.0682415 0.00590551
f 41/66/1 16/75/1 15/8/1 23/83/1 

vt -0.0433071 0.0131234
vt -0.0446194 0.0131234
f 25/84/3 5/85/3 4/15/3 28/60/3 

vt 0.0531496 0.00328084
v 81 1 -45
vt 0.0531496 0.000656168
vt 0.0682415 0.000656168
f 34/38/4 33/86/4 47/87/4 42/88/4 

vt 0.0295276 0.00328084
vt 0.0150919 0.00328084
v 81 1 -23
vt 0.0150919 0.000656168
vt 0.0295276 0.000656168
f 33/89/5 32/90/5 48/91/5 47/92/5 

vt -0.0531496 0.00328084
vt -0.0682415 0.000656168
vt -0.0531496 0.000656168
f 32/93/1 31/65/1 43/94/1 48/95/1 

f 43/46/6 42/49/6 47/48/6 48/47/6 

