%FSTAX23Y23*%
%MOIN*%
%SFA1B1*%

%IPPOS*%
%ADD32R,0.029527X0.025591*%
%ADD33R,0.025591X0.029527*%
%ADD34R,0.031496X0.025591*%
%ADD35R,0.108268X0.049212*%
%ADD36R,0.068898X0.037401*%
%ADD37R,0.029527X0.051181*%
%ADD38R,0.037401X0.035433*%
%ADD39R,0.035433X0.037401*%
%ADD40R,0.040945X0.014567*%
%ADD41R,0.072047X0.079921*%
%ADD42R,0.076771X0.045275*%
%ADD43O,0.031496X0.013780*%
%ADD44O,0.013780X0.031496*%
%ADD45R,0.190944X0.190944*%
%ADD46R,0.043307X0.039370*%
%ADD47C,0.045275*%
%ADD48R,0.045275X0.045275*%
%ADD49R,0.064960X0.064960*%
%LNfinal_1_board-1*%
%LPD*%
G54D32*
X-00274Y-00105D03*
X-00313D03*
X00544Y00307D03*
X00505D03*
X00188Y00068D03*
X00227D03*
Y00103D03*
X00188D03*
X-00229Y00074D03*
X-0019D03*
X-00092Y-00161D03*
X-00131D03*
G54D33*
X00164Y00019D03*
Y-00019D03*
X00547Y00348D03*
Y00387D03*
Y00228D03*
Y00268D03*
X00159Y002D03*
Y00161D03*
X00194Y002D03*
Y00161D03*
X00103Y002D03*
Y00161D03*
X00064D03*
Y002D03*
X00333D03*
Y00161D03*
X-00238Y00037D03*
Y-00001D03*
G54D34*
X00239Y-0002D03*
X00202D03*
X-0006Y00335D03*
X-00023D03*
G54D35*
X-00018Y00386D03*
Y00492D03*
G54D36*
X00546Y00425D03*
Y00559D03*
G54D37*
X-00439Y-00049D03*
X-00514D03*
X-00477Y-00138D03*
X-00514Y00015D03*
X-00439D03*
X-00477Y00104D03*
G54D38*
X00066Y00379D03*
Y00432D03*
X00318Y00321D03*
Y00268D03*
X-0007Y00292D03*
Y00239D03*
G54D39*
X0026Y00481D03*
X00207D03*
X00267Y00322D03*
X00214D03*
X-00236Y00114D03*
X-00183D03*
X00029Y00292D03*
X-00023D03*
G54D40*
X00151Y0044D03*
Y0042D03*
Y00401D03*
Y00381D03*
Y00361D03*
X00317Y0044D03*
Y0042D03*
Y00401D03*
Y00381D03*
Y00361D03*
G54D41*
X00235Y00401D03*
G54D42*
X-00294Y00034D03*
Y-00064D03*
G54D43*
X-00119Y00086D03*
Y0007D03*
Y00055D03*
Y00039D03*
Y00023D03*
Y00007D03*
Y-00007D03*
Y-00023D03*
Y-00039D03*
Y-00055D03*
Y-0007D03*
Y-00086D03*
X00119D03*
Y-0007D03*
Y-00055D03*
Y-00039D03*
Y-00023D03*
Y-00007D03*
Y00007D03*
Y00023D03*
Y00039D03*
Y00055D03*
Y0007D03*
Y00086D03*
G54D44*
X-00086Y-00119D03*
X-0007D03*
X-00055D03*
X-00039D03*
X-00023D03*
X-00007D03*
X00007D03*
X00023D03*
X00039D03*
X00055D03*
X0007D03*
X00086D03*
Y00119D03*
X0007D03*
X00055D03*
X00039D03*
X00023D03*
X00007D03*
X-00007D03*
X-00023D03*
X-00039D03*
X-00055D03*
X-0007D03*
X-00086D03*
G54D45*
X0Y0D03*
G54D46*
X00235Y00158D03*
Y00203D03*
X00292D03*
Y00158D03*
G54D47*
X-00372Y-00164D03*
X-00322D03*
X-00272D03*
X00264D03*
X00214D03*
X00164D03*
G54D48*
X-00222Y-00164D03*
X00314D03*
G54D49*
X-00505Y00179D03*
Y00407D03*
X-00253Y00179D03*
Y00407D03*
M02*