%FSTAX23Y23*%
%MOIN*%
%SFA1B1*%

%IPPOS*%
%ADD13C,0.005905*%
%ADD55C,0.039370*%
%ADD56R,0.039370X0.039370*%
%ADD57R,0.059055X0.059055*%
%ADD58C,0.024016*%
%ADD59C,0.024016*%
%ADD60C,0.025984*%
%ADD61R,0.043307X0.102362*%
%ADD62C,0.014961*%
%ADD63C,0.013780*%
%LNfinal_1_board-1*%
%LPD*%
G36*
X00359Y00324D02*
X00359Y00322D01*
X00622*
Y-00275*
X-00544*
Y0014*
X-00541Y00144*
X-00539*
X-0047*
Y00172*
X-0027Y00372*
X-00222*
X-0022Y00367*
X-0026Y00327*
X-00262Y00324*
X-00262Y0032*
Y00215*
X-00289*
Y00144*
X-00218*
Y00215*
X-00244*
Y00317*
X-00106Y00455*
X-0008*
Y00537*
X-00033*
X-00031Y00533*
X-00025Y00529*
X-00018Y00527*
X-00011Y00529*
X-00005Y00533*
X-00001Y00538*
X0Y00546*
X-00001Y00553*
X-00005Y00559*
X-00011Y00562*
X-00017Y00564*
Y00574*
X00359*
Y00324*
G37*
G36*
X-00135Y0057D02*
D01*
Y00455*
X-00137Y00451*
X-00213Y00374*
X-00218Y00376*
Y00443*
X-00289*
Y0039*
X-00466Y00213*
X-0047Y00215*
X-00539*
X-00541*
X-00544Y00218*
Y00368*
X-00541Y00372*
X-00539*
X-0047*
Y00443*
X-00539*
X-00541*
X-00544Y00447*
Y00574*
X-0025*
X-00246Y00574*
Y00569*
Y00518*
X-00214*
X-00182*
Y00569*
Y00574*
X-00177Y00574*
X-00136*
X-00135Y0057*
G37*
%LNfinal_1_board-2*%
%LPC*%
G36*
X00268Y00305D02*
X00261Y00303D01*
X00255Y003*
X00251Y00294*
X00249Y00287*
X00251Y00279*
X00254Y00275*
Y0022*
X00205Y00171*
X00142*
X00138Y00174*
X00131Y00176*
X00124Y00174*
X00119Y00172*
X-00114*
X-00118Y00175*
X-00125Y00176*
X-00133Y00175*
X-00138Y00171*
X-00142Y00165*
X-00144Y00158*
X-00142Y00151*
X-00139Y00146*
Y-00073*
X-00138Y-00078*
X-00135Y-00083*
X-00105Y-00112*
Y-0018*
X-00109Y-00185*
X-0011Y-00192*
X-00109Y-002*
X-00105Y-00205*
X-00099Y-00209*
X-00092Y-00211*
X-00085Y-00209*
X-0008Y-00206*
X00135*
X00141Y-00205*
X00145Y-00202*
X00158Y-0019*
X00164Y-0019*
X0017Y-0019*
X00176Y-00187*
X00182Y-00183*
X00183Y-00181*
X00184Y-00181*
X00189Y-00181*
X00192Y-00186*
X00199Y-0019*
X00206Y-00194*
X00209*
Y-00164*
Y-00135*
X00206Y-00136*
X00199Y-00138*
X00192Y-00143*
X00189Y-00148*
X00184Y-00148*
X00183Y-00148*
X00182Y-00146*
X00176Y-00142*
X0017Y-0014*
X00164Y-00138*
X00157Y-0014*
X00151Y-00142*
X00145Y-00146*
X00141Y-00151*
X00138Y-00158*
X00138Y-00164*
X00138Y-0017*
X0013Y-00179*
X-00077*
Y-00107*
X-00079Y-00102*
X-00081Y-00097*
X-00112Y-00067*
Y00144*
X00118*
X00124Y0014*
X00131Y00139*
X00138Y0014*
X00142Y00144*
X00211*
X00216Y00145*
X0022Y00148*
X00277Y00205*
X0028Y00209*
X00281Y00214*
Y00275*
X00285Y00279*
X00286Y00287*
X00285Y00294*
X00281Y003*
X00275Y00303*
X00268Y00305*
G37*
G36*
X-00272Y-00138D02*
X-00278Y-0014D01*
X-00285Y-00142*
X-0029Y-00146*
X-00294Y-00151*
X-00296Y-00152*
X-00297*
X-00299Y-00151*
X-00303Y-00146*
X-00309Y-00142*
X-00315Y-0014*
X-00322Y-00138*
X-00328Y-0014*
X-00335Y-00142*
X-0034Y-00146*
X-00344Y-00151*
X-00346Y-00152*
X-00347*
X-00349Y-00151*
X-00353Y-00146*
X-00359Y-00142*
X-00365Y-0014*
X-00372Y-00138*
X-00378Y-0014*
X-00385Y-00142*
X-0039Y-00146*
X-00394Y-00151*
X-00396Y-00158*
X-00398Y-00164*
X-00396Y-00171*
X-00394Y-00177*
X-0039Y-00183*
X-00385Y-00187*
X-00378Y-0019*
X-00372Y-0019*
X-00365Y-0019*
X-00359Y-00187*
X-00353Y-00183*
X-00349Y-00178*
X-00347Y-00177*
X-00346*
X-00344Y-00178*
X-0034Y-00183*
X-00335Y-00187*
X-00328Y-0019*
X-00322Y-0019*
X-00315Y-0019*
X-00309Y-00187*
X-00303Y-00183*
X-00299Y-00178*
X-00297Y-00177*
X-00296*
X-00294Y-00178*
X-0029Y-00183*
X-00285Y-00187*
X-00278Y-0019*
X-00272Y-0019*
X-00265Y-0019*
X-00259Y-00187*
X-00253Y-00183*
X-00252Y-00181*
X-00247Y-00183*
Y-0019*
X-00196*
Y-00139*
X-00247*
Y-00146*
X-00252Y-00148*
X-00253Y-00146*
X-00259Y-00142*
X-00265Y-0014*
X-00272Y-00138*
G37*
G36*
X00218Y-00135D02*
Y-00164D01*
Y-00194*
X00221*
X00229Y-0019*
X00235Y-00186*
X00238Y-00181*
X00243Y-00181*
X00244Y-00181*
X00245Y-00183*
X00251Y-00187*
X00257Y-0019*
X00264Y-0019*
X0027Y-0019*
X00276Y-00187*
X00282Y-00183*
X00283Y-00181*
X00288Y-00183*
Y-0019*
X00339*
Y-00139*
X00288*
Y-00146*
X00283Y-00148*
X00282Y-00146*
X00276Y-00142*
X0027Y-0014*
X00264Y-00138*
X00257Y-0014*
X00251Y-00142*
X00245Y-00146*
X00244Y-00148*
X00243Y-00148*
X00238Y-00148*
X00235Y-00143*
X00229Y-00138*
X00221Y-00136*
X00218Y-00135*
G37*
G36*
X-00182Y00507D02*
X-00209D01*
Y00451*
X-00182*
Y00507*
G37*
G36*
X-00219D02*
X-00246D01*
Y00451*
X-00219*
Y00507*
G37*
%LNfinal_1_board-3*%
%LPD*%
G54D13*
X-00114Y00516D02*
X-00085Y00546D01*
X-00107Y00466D02*
Y00512D01*
X-00253Y0032D02*
X-00107Y00466D01*
X-00253Y00179D02*
Y0032D01*
X-00085Y00546D02*
X-00018D01*
X-00505Y00179D02*
X-00482D01*
G54D55*
X-00372Y-00164D03*
X-00322D03*
X-00272D03*
X00264D03*
X00214D03*
X00164D03*
G54D56*
X-00222Y-00164D03*
X00314D03*
G54D57*
X-00505Y00179D03*
Y00407D03*
X-00253Y00179D03*
Y00407D03*
G54D58*
X-00294Y00327D03*
X-00357Y00375D03*
X00209Y00521D03*
X00318Y00237D03*
X-00516Y00059D03*
X-00257Y00561D03*
X00091D03*
X-00392Y00555D03*
X-00279Y00231D03*
X-00305Y00081D03*
X-00311Y-00013D03*
X-00505Y00238D03*
X-00507Y00342D03*
X-00018Y00546D03*
X-00109Y00287D03*
X0052Y0002D03*
X00253Y-0007D03*
X00401Y-00068D03*
X00205Y00016D03*
X-00092Y-00192D03*
X-00188Y-00258D03*
X00176Y00555D03*
X00468Y00112D03*
X-00117Y00227D03*
X00503Y00242D03*
X00496Y00188D03*
X00588Y00244D03*
X00598Y00146D03*
X00496D03*
X00572Y00066D03*
X00438Y00081D03*
X00468Y-00033D03*
X00394Y0004D03*
X-00525Y00561D03*
X-00527Y00472D03*
X-00531Y0013D03*
Y-00169D03*
X-00527Y-00255D03*
X-00316Y-00262D03*
X-00027Y-00257D03*
X0015Y-00257D03*
X00333Y-00262D03*
X00485D03*
X00605Y-00261D03*
X00609Y-00157D03*
Y-00047D03*
X00596Y001D03*
X00598Y00188D03*
X00344Y00556D03*
X00344Y00475D03*
X00346Y00421D03*
X00594Y00306D03*
X00414Y00307D03*
X00464Y00306D03*
X00368Y00303D03*
X00268Y00287D03*
X-00117Y-00118D03*
X-00131Y-00192D03*
X00131Y00201D03*
X00194Y00231D03*
X00104D03*
X00065D03*
Y00291D03*
X-00018Y00191D03*
X-00271Y00116D03*
X-00345Y-00105D03*
X-00477Y-00044D03*
X00259Y0053D03*
X0017Y00479D03*
X00235Y00238D03*
X00159Y00231D03*
X00333Y00125D03*
X00292Y00122D03*
X00259Y00103D03*
Y00068D03*
X00342Y-0007D03*
X00348Y00029D03*
X0026Y00028D03*
X00201Y-00049D03*
X-00125Y00158D03*
G54D59*
X00131Y00157D03*
G54D60*
X-0007Y0007D03*
X-00023D03*
X00023D03*
X0007D03*
X-0007Y00023D03*
X-00023D03*
X00023D03*
X0007D03*
X-0007Y-00023D03*
X-00023D03*
X00023D03*
X0007D03*
X-0007Y-0007D03*
X-00023D03*
X00023D03*
X0007D03*
G54D61*
X-00107Y00512D03*
X-00214D03*
G54D62*
X-00125Y00158D02*
X0013D01*
X00131Y00157*
X-00092Y-00192D02*
X-00091Y-00192D01*
X-00092Y-00192D02*
X00135D01*
X00268Y00214D02*
Y00287D01*
X-00091Y-00192D02*
Y-00107D01*
X-00125Y-00073D02*
X-00091Y-00107D01*
X00211Y00157D02*
X00268Y00214D01*
X00131Y00157D02*
X00211D01*
X00135Y-00192D02*
X00164Y-00164D01*
X-00125Y-00073D02*
Y00158D01*
G54D63*
X-00482Y00179D02*
X-00253Y00407D01*
M02*