%FSTAX23Y23*%
%MOIN*%
%SFA1B1*%

%IPPOS*%
%ADD15R,0.019685X0.023622*%
%ADD16R,0.023622X0.019685*%
%ADD17R,0.062992X0.031496*%
%ADD18R,0.031496X0.029527*%
%ADD19R,0.045275X0.023622*%
%ADD20R,0.029527X0.031496*%
%ADD21R,0.025591X0.019685*%
%ADD22R,0.037401X0.033465*%
%ADD23R,0.185039X0.185039*%
%ADD24O,0.007874X0.025591*%
%ADD25O,0.025591X0.007874*%
%ADD26R,0.070866X0.039370*%
%LNfinal_vd-1*%
%LPD*%
G54D15*
X00164Y-00019D03*
Y00019D03*
X00194Y00161D03*
Y002D03*
X00159Y00161D03*
Y002D03*
X00546Y00009D03*
Y00048D03*
X00544Y0012D03*
Y00159D03*
X-00351Y-00063D03*
Y-00024D03*
X00064Y002D03*
Y00161D03*
X00333D03*
Y002D03*
X-00238Y-00001D03*
Y00037D03*
X00103Y00161D03*
Y002D03*
G54D16*
X0024Y-0002D03*
X00201D03*
X00188Y00103D03*
X00227D03*
Y00068D03*
X00188D03*
X00503Y00084D03*
X00542D03*
X-0019Y00074D03*
X-00229D03*
X-00131Y-00161D03*
X-00092D03*
G54D17*
X00544Y00333D03*
Y00199D03*
G54D18*
X-0015Y00268D03*
Y00321D03*
X-00196Y00268D03*
Y00321D03*
X-00244Y00268D03*
Y00321D03*
X-0007Y00239D03*
Y00292D03*
G54D19*
X-00393Y00306D03*
Y00231D03*
X-00304Y00268D03*
X-00457Y00231D03*
Y00306D03*
X-00546Y00268D03*
G54D20*
X-00023Y00292D03*
X00029D03*
X-00236Y00114D03*
X-00183D03*
G54D21*
X-00023Y00335D03*
X-0006D03*
G54D22*
X00292Y00158D03*
Y00203D03*
X00235D03*
Y00158D03*
G54D23*
X0Y0D03*
G54D24*
X-00086Y00119D03*
X-0007D03*
X-00055D03*
X-00039D03*
X-00023D03*
X-00007D03*
X00007D03*
X00023D03*
X00039D03*
X00055D03*
X0007D03*
X00086D03*
Y-00119D03*
X0007D03*
X00055D03*
X00039D03*
X00023D03*
X00007D03*
X-00007D03*
X-00023D03*
X-00039D03*
X-00055D03*
X-0007D03*
X-00086D03*
G54D25*
X00119Y00086D03*
Y0007D03*
Y00055D03*
Y00039D03*
Y00023D03*
Y00007D03*
Y-00007D03*
Y-00023D03*
Y-00039D03*
Y-00055D03*
Y-0007D03*
Y-00086D03*
X-00119D03*
Y-0007D03*
Y-00055D03*
Y-00039D03*
Y-00023D03*
Y-00007D03*
Y00007D03*
Y00023D03*
Y00039D03*
Y00055D03*
Y0007D03*
Y00086D03*
G54D26*
X-00294Y-00064D03*
Y00034D03*
M02*