%FSTAX23Y23*%
%MOIN*%
%SFA1B1*%

%IPPOS*%
%ADD10C,0.009843*%
%ADD11C,0.031496*%
%ADD12C,0.005905*%
%ADD13C,0.007874*%
%ADD14C,0.005905*%
%LNfinal_vd-1*%
%LPD*%
G54D10*
X-00388Y00339D02*
D01*
X-00388Y0034*
X-00388Y0034*
X-00388Y0034*
X-00388Y00341*
X-00388Y00341*
X-00388Y00341*
X-00388Y00341*
X-00388Y00342*
X-00389Y00342*
X-00389Y00342*
X-00389Y00343*
X-00389Y00343*
X-0039Y00343*
X-0039Y00343*
X-0039Y00343*
X-0039Y00344*
X-00391Y00344*
X-00391Y00344*
X-00391Y00344*
X-00392Y00344*
X-00392Y00344*
X-00392Y00344*
X-00393*
X-00393Y00344*
X-00393Y00344*
X-00394Y00344*
X-00394Y00344*
X-00394Y00344*
X-00394Y00344*
X-00395Y00343*
X-00395Y00343*
X-00395Y00343*
X-00396Y00343*
X-00396Y00343*
X-00396Y00342*
X-00396Y00342*
X-00396Y00342*
X-00397Y00341*
X-00397Y00341*
X-00397Y00341*
X-00397Y00341*
X-00397Y0034*
X-00397Y0034*
X-00397Y0034*
X-00397Y00339*
X-00397Y00339*
X-00397Y00339*
X-00397Y00338*
X-00397Y00338*
X-00397Y00338*
X-00397Y00337*
X-00397Y00337*
X-00396Y00337*
X-00396Y00336*
X-00396Y00336*
X-00396Y00336*
X-00396Y00336*
X-00395Y00336*
X-00395Y00335*
X-00395Y00335*
X-00394Y00335*
X-00394Y00335*
X-00394Y00335*
X-00394Y00335*
X-00393Y00335*
X-00393Y00335*
X-00393Y00335*
X-00392*
X-00392Y00335*
X-00392Y00335*
X-00391Y00335*
X-00391Y00335*
X-00391Y00335*
X-0039Y00335*
X-0039Y00335*
X-0039Y00335*
X-0039Y00336*
X-00389Y00336*
X-00389Y00336*
X-00389Y00336*
X-00389Y00336*
X-00388Y00337*
X-00388Y00337*
X-00388Y00337*
X-00388Y00338*
X-00388Y00338*
X-00388Y00338*
X-00388Y00339*
X-00388Y00339*
X-00388Y00339*
X-00452Y00198D02*
D01*
X-00452Y00198*
X-00452Y00198*
X-00452Y00199*
X-00452Y00199*
X-00453Y00199*
X-00453Y00199*
X-00453Y002*
X-00453Y002*
X-00453Y002*
X-00453Y00201*
X-00454Y00201*
X-00454Y00201*
X-00454Y00201*
X-00454Y00201*
X-00455Y00202*
X-00455Y00202*
X-00455Y00202*
X-00456Y00202*
X-00456Y00202*
X-00456Y00202*
X-00456Y00202*
X-00457Y00202*
X-00457*
X-00457Y00202*
X-00458Y00202*
X-00458Y00202*
X-00458Y00202*
X-00459Y00202*
X-00459Y00202*
X-00459Y00202*
X-0046Y00201*
X-0046Y00201*
X-0046Y00201*
X-0046Y00201*
X-00461Y00201*
X-00461Y002*
X-00461Y002*
X-00461Y002*
X-00461Y00199*
X-00461Y00199*
X-00462Y00199*
X-00462Y00199*
X-00462Y00198*
X-00462Y00198*
X-00462Y00198*
X-00462Y00197*
X-00462Y00197*
X-00462Y00197*
X-00462Y00196*
X-00461Y00196*
X-00461Y00196*
X-00461Y00195*
X-00461Y00195*
X-00461Y00195*
X-00461Y00194*
X-0046Y00194*
X-0046Y00194*
X-0046Y00194*
X-0046Y00194*
X-00459Y00193*
X-00459Y00193*
X-00459Y00193*
X-00458Y00193*
X-00458Y00193*
X-00458Y00193*
X-00457Y00193*
X-00457Y00193*
X-00457*
X-00456Y00193*
X-00456Y00193*
X-00456Y00193*
X-00456Y00193*
X-00455Y00193*
X-00455Y00193*
X-00455Y00193*
X-00454Y00194*
X-00454Y00194*
X-00454Y00194*
X-00454Y00194*
X-00453Y00194*
X-00453Y00195*
X-00453Y00195*
X-00453Y00195*
X-00453Y00196*
X-00453Y00196*
X-00452Y00196*
X-00452Y00197*
X-00452Y00197*
X-00452Y00197*
X-00452Y00198*
X-00148Y00086D02*
D01*
X-00148Y00086*
X-00148Y00087*
X-00148Y00087*
X-00149Y00087*
X-00149Y00088*
X-00149Y00088*
X-00149Y00088*
X-00149Y00089*
X-00149Y00089*
X-00149Y00089*
X-0015Y00089*
X-0015Y0009*
X-0015Y0009*
X-0015Y0009*
X-00151Y0009*
X-00151Y0009*
X-00151Y0009*
X-00152Y00091*
X-00152Y00091*
X-00152Y00091*
X-00153Y00091*
X-00153Y00091*
X-00153*
X-00154Y00091*
X-00154Y00091*
X-00154Y00091*
X-00155Y00091*
X-00155Y0009*
X-00155Y0009*
X-00155Y0009*
X-00156Y0009*
X-00156Y0009*
X-00156Y0009*
X-00156Y00089*
X-00157Y00089*
X-00157Y00089*
X-00157Y00089*
X-00157Y00088*
X-00157Y00088*
X-00157Y00088*
X-00158Y00087*
X-00158Y00087*
X-00158Y00087*
X-00158Y00086*
X-00158Y00086*
X-00158Y00086*
X-00158Y00085*
X-00158Y00085*
X-00158Y00085*
X-00157Y00084*
X-00157Y00084*
X-00157Y00084*
X-00157Y00084*
X-00157Y00083*
X-00157Y00083*
X-00156Y00083*
X-00156Y00083*
X-00156Y00082*
X-00156Y00082*
X-00155Y00082*
X-00155Y00082*
X-00155Y00082*
X-00155Y00082*
X-00154Y00082*
X-00154Y00081*
X-00154Y00081*
X-00153Y00081*
X-00153*
X-00153Y00081*
X-00152Y00081*
X-00152Y00082*
X-00152Y00082*
X-00151Y00082*
X-00151Y00082*
X-00151Y00082*
X-0015Y00082*
X-0015Y00082*
X-0015Y00083*
X-0015Y00083*
X-00149Y00083*
X-00149Y00083*
X-00149Y00084*
X-00149Y00084*
X-00149Y00084*
X-00149Y00084*
X-00149Y00085*
X-00148Y00085*
X-00148Y00085*
X-00148Y00086*
X-00148Y00086*
G54D11*
X-00646Y-00063D02*
D01*
X-00642Y-00063*
X-00638Y-00063*
X-00634Y-00062*
X-0063Y-00061*
X-00626Y-0006*
X-00622Y-00058*
X-00619Y-00057*
X-00615Y-00055*
X-00612Y-00052*
X-00609Y-0005*
X-00606Y-00047*
X-00603Y-00044*
X-00601Y-00041*
X-00598Y-00038*
X-00596Y-00035*
X-00594Y-00031*
X-00593Y-00028*
X-00591Y-00024*
X-0059Y-0002*
X-00589Y-00016*
X-00589Y-00012*
X-00589Y-00008*
Y-00004*
X-00589Y0*
X-00589Y00003*
X-0059Y00007*
X-00591Y0001*
X-00593Y00014*
X-00594Y00018*
X-00596Y00021*
X-00598Y00025*
X-00601Y00028*
X-00603Y00031*
X-00606Y00034*
X-00609Y00037*
X-00612Y00039*
X-00615Y00041*
X-00619Y00043*
X-00622Y00045*
X-00626Y00046*
X-0063Y00048*
X-00634Y00049*
X-00638Y00049*
X-00642Y0005*
X-00646Y0005*
X-0043Y-00064D02*
Y00051D01*
X-00646Y-00064D02*
X-0043D01*
X-00646Y00051D02*
X-0043D01*
X-00646Y0005D02*
Y00051D01*
Y-00064D02*
Y-00063D01*
G54D12*
X00151Y-00035D02*
Y-00009D01*
Y00009D02*
Y00035D01*
X00178Y-00035D02*
Y-00009D01*
Y00009D02*
Y00035D01*
X00151D02*
X00178D01*
X00151Y-00035D02*
X00178D01*
X0018Y00216D02*
X00207D01*
X0018Y00145D02*
X00207D01*
X0018D02*
Y00171D01*
Y0019D02*
Y00216D01*
X00207Y00145D02*
Y00171D01*
Y0019D02*
Y00216D01*
X00145D02*
X00172D01*
X00145Y00145D02*
X00172D01*
X00145D02*
Y00171D01*
Y0019D02*
Y00216D01*
X00172Y00145D02*
Y00171D01*
Y0019D02*
Y00216D01*
X0023Y-00033D02*
X00256D01*
X00185D02*
X00211D01*
X0023Y-00006D02*
X00256D01*
X00185D02*
X00211D01*
X00185Y-00033D02*
Y-00006D01*
X00256Y-00033D02*
Y-00006D01*
X00243Y00089D02*
Y00116D01*
X00172Y00089D02*
Y00116D01*
X00198*
X00217D02*
X00243D01*
X00172Y00089D02*
X00198D01*
X00217D02*
X00243D01*
X00172Y00054D02*
Y00081D01*
X00243Y00054D02*
Y00081D01*
X00217Y00054D02*
X00243D01*
X00172D02*
X00198D01*
X00217Y00081D02*
X00243D01*
X00172D02*
X00198D01*
X00532Y00064D02*
X00559D01*
X00532Y-00006D02*
X00559D01*
X00532D02*
Y00018D01*
Y00038D02*
Y00064D01*
X00559Y-00006D02*
Y00018D01*
Y00038D02*
Y00064D01*
X00531Y00175D02*
X00558D01*
X00531Y00104D02*
X00558D01*
X00531D02*
Y0013D01*
Y0015D02*
Y00175D01*
X00558Y00104D02*
Y0013D01*
Y0015D02*
Y00175D01*
X00487Y00098D02*
X00512D01*
X00532D02*
X00558D01*
X00487Y0007D02*
X00512D01*
X00532D02*
X00558D01*
Y00098*
X00487Y0007D02*
Y00098D01*
X-00169Y00248D02*
X-0013D01*
X-00169Y00341D02*
X-0013D01*
Y00304D02*
Y00341D01*
Y00248D02*
Y00285D01*
X-00169Y00304D02*
Y00341D01*
Y00248D02*
Y00285D01*
X-00216Y00248D02*
X-00177D01*
X-00216Y00341D02*
X-00177D01*
Y00304D02*
Y00341D01*
Y00248D02*
Y00285D01*
X-00216Y00304D02*
Y00341D01*
Y00248D02*
Y00285D01*
X-00264Y00248D02*
X-00225D01*
X-00264Y00341D02*
X-00225D01*
Y00304D02*
Y00341D01*
Y00248D02*
Y00285D01*
X-00264Y00304D02*
Y00341D01*
Y00248D02*
Y00285D01*
X-00364Y-00008D02*
X-00337D01*
X-00364Y-00079D02*
X-00337D01*
X-00364D02*
Y-00053D01*
Y-00034D02*
Y-00008D01*
X-00337Y-00079D02*
Y-00053D01*
Y-00034D02*
Y-00008D01*
X00078Y0019D02*
Y00216D01*
Y00145D02*
Y00171D01*
X00051Y0019D02*
Y00216D01*
Y00145D02*
Y00171D01*
Y00145D02*
X00078D01*
X00051Y00216D02*
X00078D01*
X-00043Y00311D02*
Y00272D01*
X00049D02*
Y00311D01*
X00012Y00272D02*
X00049D01*
X-00043D02*
X-00006D01*
X00012Y00311D02*
X00049D01*
X-00043D02*
X-00006D01*
X-00077Y00348D02*
Y00321D01*
X-00006Y00348D02*
Y00321D01*
X-00032D02*
X-00006D01*
X-00077D02*
X-00051D01*
X-00032Y00348D02*
X-00006D01*
X-00077D02*
X-00051D01*
X-0009Y00219D02*
Y00256D01*
Y00275D02*
Y00312D01*
X-00051Y00219D02*
Y00256D01*
Y00275D02*
Y00312D01*
X-0009Y00219D02*
X-00051D01*
X-0009Y00312D02*
X-00051D01*
X-00245Y0006D02*
Y00087D01*
X-00174Y0006D02*
Y00087D01*
X-002Y0006D02*
X-00174D01*
X-00245D02*
X-00219D01*
X-002Y00087D02*
X-00174D01*
X-00245D02*
X-00219D01*
X-00147Y-00147D02*
X-00121D01*
X-00101D02*
X-00076D01*
X-00147Y-00174D02*
X-00121D01*
X-00101D02*
X-00076D01*
Y-00147*
X-00147Y-00174D02*
Y-00147D01*
X0032Y00145D02*
Y00171D01*
Y0019D02*
Y00216D01*
X00347Y00145D02*
Y00171D01*
Y0019D02*
Y00216D01*
X0032D02*
X00347D01*
X0032Y00145D02*
X00347D01*
X00306Y00178D02*
Y00183D01*
X00257Y00146D02*
X0027D01*
X00221Y00178D02*
Y00183D01*
X00257Y00215D02*
X0027D01*
X-00256Y00095D02*
Y00134D01*
X-00163Y00095D02*
Y00134D01*
X-002Y00095D02*
X-00163D01*
X-00256D02*
X-00219D01*
X-002Y00134D02*
X-00163D01*
X-00256D02*
X-00219D01*
X-00251Y-00017D02*
Y00008D01*
Y00027D02*
Y00053D01*
X-00224Y-00017D02*
Y00008D01*
Y00027D02*
Y00053D01*
X-00251D02*
X-00224D01*
X-00251Y-00017D02*
X-00224D01*
X00089Y00216D02*
X00116D01*
X00089Y00145D02*
X00116D01*
X00089D02*
Y00171D01*
Y0019D02*
Y00216D01*
X00116Y00145D02*
Y00171D01*
Y0019D02*
Y00216D01*
X00268Y-00005D02*
Y-00031D01*
X00285*
X00294D02*
X00303D01*
X00299*
Y-00005*
X00294Y-00009*
X00019Y00161D02*
X00014Y00157D01*
Y00148*
X00019Y00143*
X00037*
X00042Y00148*
Y00157*
X00037Y00161*
X00042Y0017D02*
Y00179D01*
Y00175*
X00014*
X00019Y0017*
X00042Y00206D02*
X00014D01*
X00028Y00192*
Y00211*
X00077Y00313D02*
X00072Y00318D01*
X00063*
X00059Y00313*
Y00295*
X00063Y0029*
X00072*
X00077Y00295*
X00085Y0029D02*
X00094D01*
X0009*
Y00318*
X00085Y00313*
X00108D02*
X00112Y00318D01*
X00122*
X00126Y00313*
Y00295*
X00122Y0029*
X00112*
X00108Y00295*
Y00313*
X00003Y00348D02*
Y00322D01*
X0002*
X00029Y00344D02*
X00034Y00348D01*
X00043*
X00048Y00344*
Y0034*
X00043Y00335*
X00038*
X00043*
X00048Y00331*
Y00326*
X00043Y00322*
X00034*
X00029Y00326*
X-00081Y00166D02*
X-00055D01*
Y00185*
Y00211D02*
Y00194D01*
X-00072Y00211*
X-00077*
X-00081Y00207*
Y00198*
X-00077Y00194*
X-00172Y00048D02*
X-00177Y00052D01*
X-00186*
X-0019Y00048*
Y0003*
X-00186Y00025*
X-00177*
X-00172Y0003*
X-0015Y00025D02*
Y00052D01*
X-00164Y00039*
X-00146*
X-00046Y-00152D02*
X-00051Y-00148D01*
X-0006*
X-00064Y-00152*
Y-0017*
X-0006Y-00175*
X-00051*
X-00046Y-0017*
X-0002Y-00148D02*
X-00038D01*
Y-00161*
X-00029Y-00157*
X-00024*
X-0002Y-00161*
Y-0017*
X-00024Y-00175*
X-00033*
X-00038Y-0017*
X00296Y00105D02*
X00292Y0011D01*
X00283*
X00279Y00105*
Y00087*
X00283Y00083*
X00292*
X00296Y00087*
X00305Y0011D02*
X00324D01*
Y00105*
X00305Y00087*
Y00083*
X00322Y00246D02*
X00318Y00241D01*
Y00232*
X00322Y00227*
X0034*
X00344Y00232*
Y00241*
X0034Y00246*
X00344Y00255D02*
Y00264D01*
Y00259*
X00318*
X00322Y00255*
X00244Y00255D02*
X00262Y00229D01*
Y00255D02*
X00244Y00229D01*
X00272D02*
X00281D01*
X00276*
Y00255*
X00272Y00251*
X00149Y00268D02*
X00144Y00263D01*
Y00254*
X00149Y0025*
X00167*
X00172Y00254*
Y00263*
X00167Y00268*
X00149Y00277D02*
X00144Y00281D01*
Y0029*
X00149Y00294*
X00153*
X00158Y0029*
X00162Y00294*
X00167*
X00172Y0029*
Y00281*
X00167Y00277*
X00162*
X00158Y00281*
X00153Y00277*
X00149*
X00158Y00281D02*
Y0029D01*
X00294Y0007D02*
X0029Y00074D01*
X00281*
X00277Y0007*
Y00052*
X00281Y00048*
X0029*
X00294Y00052*
X00322Y00074D02*
X00312Y0007D01*
X00303Y00061*
Y00052*
X00308Y00048*
X00317*
X00322Y00052*
Y00057*
X00317Y00061*
X00303*
X00184Y00265D02*
X00179Y00261D01*
Y00251*
X00184Y00247*
X00202*
X00207Y00251*
Y00261*
X00202Y00265*
X00207Y00292D02*
Y00274D01*
X00188Y00292*
X00184*
X00179Y00288*
Y00279*
X00184Y00274*
X00125Y00125D02*
Y00103D01*
X0013Y00098*
X00139*
X00144Y00103*
Y00125*
X00153Y00098D02*
X00161D01*
X00157*
Y00125*
X00153Y00121*
X00152Y-00072D02*
X00148Y-00076D01*
Y-00085*
X00152Y-0009*
X0017*
X00175Y-00085*
Y-00076*
X0017Y-00072*
X00152Y-00062D02*
X00148Y-00058D01*
Y-00049*
X00152Y-00044*
X00157*
X00161Y-00049*
Y-00053*
Y-00049*
X00166Y-00044*
X0017*
X00175Y-00049*
Y-00058*
X0017Y-00062*
X-00247Y-0008D02*
X-0022Y-00062D01*
X-00247D02*
X-0022Y-0008D01*
Y-00035D02*
Y-00053D01*
X-00238Y-00035*
X-00243*
X-00247Y-0004*
Y-00049*
X-00243Y-00053*
X-00364Y00022D02*
X-00368Y00018D01*
Y00009*
X-00364Y00005*
X-00346*
X-00342Y00009*
Y00018*
X-00346Y00022*
X-00342Y00031D02*
Y0004D01*
Y00036*
X-00368*
X-00364Y00031*
X-00342Y00072D02*
Y00054D01*
X-00359Y00072*
X-00364*
X-00368Y00068*
Y00059*
X-00364Y00054*
X-00206Y-00029D02*
X-00211Y-00033D01*
Y-00042*
X-00206Y-00047*
X-00188*
X-00184Y-00042*
Y-00033*
X-00188Y-00029*
X-00184Y-0002D02*
Y-00011D01*
Y-00015*
X-00211*
X-00206Y-0002*
X-00184Y00002D02*
Y00011D01*
Y00006*
X-00211*
X-00206Y00002*
G54D13*
X00352Y-002D02*
Y-00129D01*
X00573Y-002D02*
Y-00129D01*
X00352D02*
X00573D01*
X-00138Y0029D02*
Y00298D01*
X-00161Y0029D02*
Y00298D01*
X-00185Y0029D02*
Y00298D01*
X-00208Y0029D02*
Y00298D01*
X-00233Y0029D02*
Y00298D01*
X-00256Y0029D02*
Y00298D01*
X-00356Y00327D02*
X-00321D01*
Y00296D02*
Y00327D01*
X-00356Y00209D02*
X-00321D01*
Y00241*
X-00529Y00209D02*
X-00494D01*
X-00529D02*
Y00241D01*
Y00327D02*
X-00494D01*
X-00529Y00296D02*
Y00327D01*
X00128Y-002D02*
Y-00129D01*
X00349Y-002D02*
Y-00129D01*
X00128D02*
X00349D01*
X0Y0028D02*
X00007D01*
X0Y00303D02*
X00007D01*
X-00082Y0027D02*
Y00262D01*
X-00059D02*
Y0027D01*
X-00213Y00103D02*
X-00205D01*
X-00213Y00126D02*
X-00205D01*
X-00118Y-00118D02*
Y-00098D01*
Y-00118D02*
X-00098D01*
X00098D02*
X00118D01*
Y-00098*
Y00098D02*
Y00118D01*
X00098D02*
X00118D01*
X-00118Y00098D02*
X-00098Y00118D01*
X-00323Y-00038D02*
Y00008D01*
X-00264Y-00038D02*
Y00008D01*
G54D14*
X00536Y-00075D02*
X00531Y-00079D01*
Y-00088*
X00536Y-00092*
X00554*
X00559Y-00088*
Y-00079*
X00554Y-00075*
X00559Y-00048D02*
Y-00066D01*
X0054Y-00048*
X00536*
X00531Y-00052*
Y-00061*
X00536Y-00066*
Y-00038D02*
X00531Y-00034D01*
Y-00025*
X00536Y-0002*
X00554*
X00559Y-00025*
Y-00034*
X00554Y-00038*
X00536*
X0052Y-00207D02*
X00532Y-00195D01*
X00545*
Y-00207*
X00532Y-0022*
X00542Y-00211*
X00529Y-00198*
X00558Y-00207D02*
X00564Y-00214D01*
X00561Y-00211*
X00542Y-0023*
X00538Y-00227*
X00545Y-00233*
X00555Y-00242D02*
X00574Y-00224D01*
X00567Y-00255*
X00587Y-00236*
X0059Y-00246D02*
X00596D01*
X00602Y-00252*
Y-00259*
X0059Y-00271*
X00583*
X00577Y-00265*
Y-00259*
X0059Y-00246*
X00466Y-00211D02*
X00486Y-00191D01*
X00495Y-00201*
Y-00207*
X00489Y-00214*
X00483*
X00473Y-00204*
X00501Y-00214D02*
X00508D01*
X00514Y-0022*
Y-00226*
X00501Y-00239*
X00495*
X00489Y-00233*
Y-00226*
X00501Y-00214*
X00537Y-00242D02*
X00527Y-00239D01*
X00514*
X00508Y-00245*
Y-00252*
X00514Y-00258*
X00521*
X00524Y-00255*
Y-00249*
X00514Y-00239*
X00416Y-00209D02*
X00436Y-0019D01*
X00445Y-002*
Y-00206*
X00439Y-00212*
X00433*
X00423Y-00203*
X00451Y-00212D02*
X00458D01*
X00464Y-00219*
Y-00225*
X00451Y-00238*
X00445*
X00439Y-00232*
Y-00225*
X00451Y-00212*
X00474Y-00229D02*
X00487Y-00241D01*
X00483Y-00244*
X00458*
X00455Y-00248*
X00368Y-00211D02*
X00387Y-00191D01*
X00396Y-00201*
Y-00207*
X0039Y-00214*
X00383*
X00374Y-00204*
X00403Y-00214D02*
X00409D01*
X00415Y-0022*
Y-00226*
X00403Y-00239*
X00396*
X0039Y-00233*
Y-00226*
X00403Y-00214*
X00422Y-00233D02*
X00428D01*
X00434Y-00239*
Y-00246*
X00431Y-00249*
X00425*
Y-00255*
X00422Y-00258*
X00415*
X00409Y-00252*
Y-00246*
X00412Y-00242*
X00418*
Y-00236*
X00422Y-00233*
X00418Y-00242D02*
X00425Y-00249D01*
X00323Y-00204D02*
Y-00198D01*
X00317Y-00192*
X00311*
X00307Y-00195*
Y-00201*
X00314Y-00207*
Y-00214*
X00311Y-00217*
X00304*
X00298Y-00211*
Y-00204*
X00333Y-00207D02*
X00314Y-00227D01*
X00323Y-00236*
X00329*
X00342Y-00224*
Y-00217*
X00333Y-00207*
X00352Y-00227D02*
X00358Y-00233D01*
X00355Y-0023*
X00336Y-00249*
X00333Y-00246*
X00339Y-00252*
X00377D02*
X00371Y-00246D01*
X00364*
X00352Y-00259*
Y-00265*
X00358Y-00271*
X00364*
X00377Y-00259*
Y-00252*
X00269Y-00203D02*
Y-00197D01*
X00263Y-0019*
X00257*
X00253Y-00193*
Y-002*
X0026Y-00206*
Y-00212*
X00257Y-00216*
X0025*
X00244Y-00209*
Y-00203*
X00288Y-00222D02*
Y-00216D01*
X00282Y-00209*
X00275*
X00263Y-00222*
Y-00228*
X00269Y-00235*
X00275*
X00298Y-00225D02*
X00279Y-00244D01*
X00291Y-00257*
X00317Y-00244D02*
X00298Y-00263D01*
X00304Y-00257*
X00329*
X00311*
Y-00276*
X00224Y-00209D02*
Y-00203D01*
X00218Y-00197*
X00211*
X00199Y-00209*
Y-00216*
X00205Y-00222*
X00211*
X00218Y-00216*
X00211Y-00209*
X00214Y-00232D02*
X00234Y-00212D01*
X00227Y-00244*
X00246Y-00225*
X00253Y-00232D02*
X00234Y-00251D01*
X00243Y-0026*
X0025*
X00262Y-00248*
Y-00241*
X00253Y-00232*
X00153Y-0019D02*
X0014Y-00203D01*
Y-00216*
X00153*
X00166Y-00203*
X00172Y-00209D02*
X00153Y-00229D01*
X00163Y-00238*
X00169*
X00182Y-00225*
Y-00219*
X00172Y-00209*
X00192Y-00229D02*
X00172Y-00248D01*
X00182Y-00257*
X00188*
X00201Y-00244*
Y-00238*
X00192Y-00229*
X00429Y-0012D02*
Y-00092D01*
X00443*
X00448Y-00097*
Y-00106*
X00443Y-00111*
X00429*
X00457Y-0012D02*
X00466D01*
X00461*
Y-00092*
X00457Y-00097*
X00496Y00118D02*
X00522D01*
Y00136*
Y00159D02*
X00496D01*
X00509Y00145*
Y00163*
X00503Y00198D02*
X00485D01*
X00477Y00207*
X00485Y00216*
X00503*
X0049*
Y00198*
X00503Y00224D02*
X00477D01*
X00503Y00242*
X00477*
Y00251D02*
Y0027D01*
Y00261*
X00503*
X00425Y0009D02*
Y00064D01*
X00442*
X0047Y0009D02*
X00451D01*
Y00077*
X00461Y00081*
X00465*
X0047Y00077*
Y00068*
X00465Y00064*
X00456*
X00451Y00068*
X-00581Y00326D02*
Y00299D01*
X-00568*
X-00564Y00303*
Y00322*
X-00568Y00326*
X-00581*
X-00537Y00299D02*
X-00555D01*
X-00537Y00317*
Y00322*
X-00541Y00326*
X-0055*
X-00555Y00322*
X-00311Y00316D02*
Y00288D01*
X-00297*
X-00292Y00293*
Y00311*
X-00297Y00316*
X-00311*
X-00283Y00288D02*
X-00275D01*
X-00279*
Y00316*
X-00283Y00311*
X-00139Y00218D02*
X-00134Y00223D01*
Y00232*
X-00139Y00237*
X-00157*
X-00161Y00232*
Y00223*
X-00157Y00218*
X-00161Y00209D02*
Y00201D01*
Y00205*
X-00134*
X-00139Y00209*
Y00187D02*
X-00134Y00183D01*
Y00174*
X-00139Y00169*
X-00143*
X-00148Y00174*
X-00152Y00169*
X-00157*
X-00161Y00174*
Y00183*
X-00157Y00187*
X-00152*
X-00148Y00183*
X-00143Y00187*
X-00139*
X-00148Y00183D02*
Y00174D01*
X-00233Y00229D02*
X-00229Y00233D01*
Y00242*
X-00233Y00246*
X-00251*
X-00255Y00242*
Y00233*
X-00251Y00229*
X-00255Y0022D02*
Y00211D01*
Y00215*
X-00229*
X-00233Y0022*
X-00229Y00197D02*
Y00179D01*
X-00233*
X-00251Y00197*
X-00255*
X-00188Y00216D02*
X-00183Y00221D01*
Y0023*
X-00188Y00235*
X-00206*
X-00211Y0023*
Y00221*
X-00206Y00216*
X-00211Y00207D02*
Y00198D01*
Y00203*
X-00183*
X-00188Y00207*
X-00183Y00167D02*
X-00188Y00176D01*
X-00197Y00185*
X-00206*
X-00211Y00181*
Y00172*
X-00206Y00167*
X-00201*
X-00197Y00172*
Y00185*
X-00496Y00104D02*
Y00077D01*
X-00482*
X-00477Y00081*
Y00086*
X-00482Y0009*
X-00496*
X-00482*
X-00477Y00095*
Y00099*
X-00482Y00104*
X-00496*
X-00468D02*
X-00451D01*
X-00459*
Y00077*
X-00442D02*
Y00104D01*
X-00424Y00077*
Y00104*
X00219Y-00122D02*
Y-00096D01*
X00232*
X00237Y-001*
Y-00109*
X00232Y-00114*
X00219*
X00264Y-00122D02*
X00246D01*
X00264Y-00105*
Y-001*
X00259Y-00096*
X0025*
X00246Y-001*
X-00137Y00138D02*
X-00141Y00142D01*
X-0015*
X-00155Y00138*
Y0012*
X-0015Y00116*
X-00141*
X-00137Y0012*
X-00127D02*
X-00123Y00116D01*
X-00114*
X-00109Y0012*
Y00138*
X-00114Y00142*
X-00123*
X-00127Y00138*
Y00133*
X-00123Y00129*
X-00109*
X00095Y00242D02*
X0009Y00237D01*
Y00228*
X00095Y00224*
X00113*
X00118Y00228*
Y00237*
X00113Y00242*
X00118Y00251D02*
Y00259D01*
Y00255*
X0009*
X00095Y00251*
Y00273D02*
X0009Y00277D01*
Y00287*
X00095Y00291*
X001*
X00104Y00287*
Y00282*
Y00287*
X00109Y00291*
X00113*
X00118Y00287*
Y00277*
X00113Y00273*
M02*