%FSTAX23Y23*%
%MOIN*%
%SFA1B1*%

%IPPOS*%
%ADD9500C,0.011811*%
%ADD9501C,0.012205*%
%ADD9502C,0.012992*%
%ADD9503C,0.023622*%
%ADD9504C,0.035433*%
%LNfinal_vd-1*%
%LPD*%
G54D9500*
X-00063Y-00253D03*
X00072Y-00255D03*
X00183D03*
X0029Y-00256D03*
X00396Y-00255D03*
X00475D03*
X00583Y-00257D03*
X-00195Y-00253D03*
X-00557Y-00255D03*
Y-0019D03*
X-00496Y-00233D03*
X-0035Y-00229D03*
X-00388Y-00068D03*
X-0035Y00011D03*
X-00279Y-00007D03*
X-0019Y-00059D03*
X-00479Y-00035D03*
X-0055Y00022D03*
X-0052Y00211D03*
X-00565Y00342D03*
X-00426Y00341D03*
X-00383Y00268D03*
X-00296Y00222D03*
X-00292Y00322D03*
X-00359Y00117D03*
X-00185Y00225D03*
X-0012Y00179D03*
X-00001Y00185D03*
X00025Y00188D03*
X00033Y00255D03*
X00062Y00233D03*
X00105D03*
X00159D03*
X00192D03*
X00231Y0024D03*
X00225Y00338D03*
X00335Y00337D03*
Y00296D03*
Y00242D03*
X00333Y00129D03*
X00294Y00125D03*
X00259Y00101D03*
Y00068D03*
X00277Y00028D03*
X00337Y00029D03*
X00359Y00079D03*
X004D03*
X00453D03*
X00425Y00029D03*
X00503Y00027D03*
X00583Y00022D03*
X00585Y00074D03*
X00583Y-0004D03*
Y-0008D03*
X00583Y-0015D03*
X0052Y-00068D03*
X00464D03*
X00392D03*
X00331D03*
X00217Y-0005D03*
X00205Y00018D03*
X00131Y00157D03*
Y002D03*
X00103Y00338D03*
X00029Y00335D03*
X-00105Y00321D03*
X-00162Y00005D03*
X-00166Y-00024D03*
X-00118Y-00118D03*
X-00131Y-00194D03*
X-00086Y-00193D03*
X-00002Y-00155D03*
X00101Y-00153D03*
G54D9501*
X-00214Y00159D03*
G54D9502*
X-0007Y-0007D03*
X-00023D03*
X00023D03*
X0007D03*
Y-00023D03*
X00023D03*
X-00023D03*
X-0007D03*
Y00023D03*
X-00023D03*
Y0007D03*
X-0007D03*
X00023D03*
Y00023D03*
X0007D03*
Y0007D03*
G54D9503*
X00164Y-00164D03*
X00214D03*
X00264D03*
X00314D03*
X00388D03*
X00438D03*
X00488D03*
X00538D03*
G54D9504*
X-00546Y-0012D03*
Y00107D03*
X-00294D03*
Y-0012D03*
M02*