%FSTAX23Y23*%
%MOIN*%
%SFA1B1*%

%IPPOS*%
%ADD10C,0.009843*%
%ADD12C,0.005905*%
%ADD44C,0.014961*%
%ADD45C,0.009843*%
%ADD52C,0.039370*%
%ADD53R,0.039370X0.039370*%
%ADD54R,0.059055X0.059055*%
%ADD55C,0.024016*%
%ADD56C,0.024016*%
%ADD57C,0.025984*%
%ADD58R,0.102362X0.043307*%
%LNfinal_vd-1*%
%LPD*%
G36*
X00355Y00094D02*
X00596D01*
Y-00275*
X-00357*
X-00361Y-00272*
Y-0027*
Y-00246*
X-00483*
Y-0027*
Y-00272*
X-00487Y-00275*
X-00579*
Y-00156*
X-00511*
Y-00123*
X-00511Y-00122*
X-00511Y-0012*
Y-00085*
X-00579*
Y00071*
X-00511*
Y00142*
X-00579*
Y00353*
X00355*
Y00094*
G37*
%LNfinal_vd-2*%
%LPC*%
G36*
X-00296Y0024D02*
X-00303Y00238D01*
X-00309Y00235*
X-00312Y00229*
X-00314Y00222*
X-00313Y00219*
X-00359Y00174*
X-00384*
Y00195*
X-00499*
Y0014*
X-00384*
Y00151*
X-00355*
X-0035Y00152*
X-00347Y00155*
X-00346Y00155*
X-00298Y00203*
X-00296Y00203*
X-00288Y00205*
X-00283Y00209*
X-00279Y00214*
X-00277Y00222*
X-00279Y00229*
X-00283Y00235*
X-00288Y00238*
X-00296Y0024*
G37*
G36*
X-00214Y00177D02*
X-0022Y00175D01*
X-00227Y00172*
X-00231Y00166*
X-00232Y00159*
X-00231Y00151*
X-0023Y00151*
Y-00072*
X-00229Y-00077*
X-00226Y-00081*
X-00104Y-00203*
X-001Y-00206*
X-00099*
X-00093Y-00211*
X-00086Y-00212*
X-00079Y-00211*
X-00074Y-00207*
X00135*
X0014Y-00206*
X00144Y-00203*
X00158Y-0019*
X00164Y-0019*
X0017Y-0019*
X00176Y-00187*
X00182Y-00183*
X00183Y-00181*
X00184Y-00181*
X00189Y-00181*
X00192Y-00186*
X00199Y-0019*
X00206Y-00194*
X00209*
Y-00164*
Y-00135*
X00206Y-00136*
X00199Y-00138*
X00192Y-00143*
X00189Y-00148*
X00184Y-00148*
X00183Y-00148*
X00182Y-00146*
X00176Y-00142*
X0017Y-0014*
X00164Y-00138*
X00157Y-0014*
X00151Y-00142*
X00145Y-00146*
X00141Y-00151*
X00138Y-00158*
X00138Y-00164*
X00138Y-0017*
X00129Y-0018*
X-00074*
X-00079Y-00176*
X-00086Y-00175*
X-00092Y-00176*
X-00202Y-00066*
Y0014*
X00118*
X00121Y0014*
X00122*
X00124*
X00131Y00139*
X00138Y0014*
X00144Y00144*
X00148Y0015*
X00149Y00157*
X00148Y00164*
X00144Y0017*
X00138Y00174*
X00131Y00176*
X00124Y00174*
X00118Y0017*
X00116Y00168*
X-00198*
X-00201Y00172*
X-00207Y00175*
X-00214Y00177*
G37*
G36*
X-00259Y00142D02*
X-0033D01*
Y00071*
X-00259*
Y00142*
G37*
G36*
X-00162Y00024D02*
X-0017Y00022D01*
X-00175Y00018*
X-00179Y00012*
X-00181Y00005*
X-00179Y-00001*
X-00177Y-00004*
X-00178Y-0001*
X-00179Y-00011*
X-00183Y-00016*
X-00184Y-00024*
X-00183Y-00031*
X-00179Y-00037*
X-00172Y-0004*
X-00166Y-00042*
X-00082Y-00126*
X-00079Y-00128*
X-00075Y-00129*
X00439*
X00444Y-00135*
X00442Y-00139*
X00438Y-00138*
X00431Y-0014*
X00425Y-00142*
X00419Y-00146*
X00415Y-00151*
X00412Y-00152*
X0041Y-00151*
X00406Y-00146*
X004Y-00142*
X00394Y-0014*
X00388Y-00138*
X00381Y-0014*
X00375Y-00142*
X00369Y-00146*
X00365Y-00151*
X00362Y-00158*
X00362Y-00164*
X00362Y-00171*
X00365Y-00177*
X00369Y-00183*
X00375Y-00187*
X00381Y-0019*
X00388Y-0019*
X00394Y-0019*
X004Y-00187*
X00406Y-00183*
X0041Y-00178*
X00412Y-00177*
X00415Y-00178*
X00419Y-00183*
X00425Y-00187*
X00431Y-0019*
X00438Y-0019*
X00444Y-0019*
X0045Y-00187*
X00456Y-00183*
X0046Y-00178*
X00462Y-00177*
X00465Y-00178*
X00469Y-00183*
X00475Y-00187*
X00481Y-0019*
X00488Y-0019*
X00494Y-0019*
X005Y-00187*
X00506Y-00183*
X00507Y-00181*
X00512Y-00183*
Y-0019*
X00563*
Y-00139*
X00525*
X00487Y-00101*
X00484Y-00099*
X00481Y-00098*
X-00067*
X-00124Y-00041*
Y-0002*
X-00125Y-00016*
X-00127Y-00014*
X-00145Y00003*
X-00144Y00005*
X-00146Y00012*
X-0015Y00018*
X-00155Y00022*
X-00162Y00024*
G37*
G36*
X-00384Y00089D02*
X-00499D01*
Y00033*
X-00427*
Y-00107*
X-00479*
Y-00162*
X-00364*
Y-00131*
X-0033*
Y-00156*
X-00259*
Y-00085*
X-0033*
Y-00109*
X-00364*
Y-00107*
X-00405*
Y00033*
X-00384*
Y00089*
G37*
G36*
X00218Y-00135D02*
Y-00164D01*
Y-00194*
X00221*
X00229Y-0019*
X00235Y-00186*
X00238Y-00181*
X00243Y-00181*
X00244Y-00181*
X00245Y-00183*
X00251Y-00187*
X00257Y-0019*
X00264Y-0019*
X0027Y-0019*
X00276Y-00187*
X00282Y-00183*
X00283Y-00181*
X00288Y-00183*
Y-0019*
X00339*
Y-00139*
X00288*
Y-00146*
X00283Y-00148*
X00282Y-00146*
X00276Y-00142*
X0027Y-0014*
X00264Y-00138*
X00257Y-0014*
X00251Y-00142*
X00245Y-00146*
X00244Y-00148*
X00243Y-00148*
X00238Y-00148*
X00235Y-00143*
X00229Y-00138*
X00221Y-00136*
X00218Y-00135*
G37*
G36*
X-00361Y-00209D02*
X-00417D01*
Y-00236*
X-00361*
Y-00209*
G37*
G36*
X-00427D02*
X-00483D01*
Y-00236*
X-00427*
Y-00209*
G37*
%LNfinal_vd-3*%
%LPD*%
G54D10*
X-00422Y-0012D02*
X-00296D01*
X-00416Y-00114D02*
Y00051D01*
X-00355Y00162D02*
X-00296Y00222D01*
G54D12*
X00122Y0015D02*
X00131Y00157D01*
X-00162Y00005D02*
X-0016D01*
X-00166Y-00029D02*
X-00075Y-0012D01*
X-00166Y-00029D02*
Y-00024D01*
X-00075Y-0012D02*
X00442D01*
X-00133Y-00044D02*
Y-0002D01*
X-0016Y00005D02*
X-00133Y-0002D01*
X00442Y-0012D02*
X00488Y-00164D01*
X-00133Y-00044D02*
X-0007Y-00107D01*
X00481*
X00538Y-00164*
G54D44*
X-00209Y00154D02*
X00118D01*
X-00214Y00159D02*
X-00209Y00154D01*
X-00216Y-00072D02*
X-00094Y-00193D01*
X00135D02*
X00164Y-00164D01*
X-00094Y-00193D02*
X-00086D01*
X00135*
X-00216Y-00072D02*
Y00157D01*
G54D45*
X-00438Y00162D02*
X-00355D01*
X-00546Y-00122D02*
X-00522D01*
G54D52*
X00388Y-00164D03*
X00438D03*
X00488D03*
X00164D03*
X00214D03*
X00264D03*
G54D53*
X00538Y-00164D03*
X00314D03*
G54D54*
X-00546Y-0012D03*
Y00107D03*
X-00294Y-0012D03*
Y00107D03*
G54D55*
X00029Y00335D03*
X-00383Y00268D03*
X-00359Y00117D03*
X-0035Y00011D03*
X-00279Y-00007D03*
X-00162Y00005D03*
X-00496Y-00233D03*
X-00479Y-00035D03*
X-00086Y-00193D03*
X00033Y00255D03*
X-00166Y-00024D03*
X-00001Y00185D03*
X00025Y00188D03*
X-00388Y-00068D03*
X-0052Y00211D03*
X-00296Y00222D03*
X-00185Y00225D03*
X-00426Y00341D03*
X-0019Y-00059D03*
X-00002Y-00155D03*
X00101Y-00153D03*
X00205Y00018D03*
X-00131Y-00194D03*
X00464Y-00068D03*
X00583Y00022D03*
X004Y00079D03*
X00453D03*
X00225Y00338D03*
X00103D03*
X-00565Y00342D03*
X-00557Y-0019D03*
Y-00255D03*
X-0035Y-00229D03*
X-00195Y-00253D03*
X-00063D03*
X00072Y-00255D03*
X00183D03*
X0029Y-00256D03*
X00396Y-00255D03*
X00475D03*
X00583Y-00257D03*
Y-0015D03*
X00583Y-0008D03*
X00585Y00074D03*
X0052Y-00068D03*
X00583Y-0004D03*
X00392Y-00068D03*
X00503Y00027D03*
X00425Y00029D03*
X00359Y00079D03*
X00335Y00242D03*
Y00296D03*
Y00337D03*
X00333Y00129D03*
X-00292Y00322D03*
X-00105Y00321D03*
X-0055Y00022D03*
X00277Y00028D03*
X00131Y002D03*
X-0012Y00179D03*
X00331Y-00068D03*
X00217Y-0005D03*
X00337Y00029D03*
X00231Y0024D03*
X00192Y00233D03*
X00159D03*
X00105D03*
X00131Y00157D03*
X-00118Y-00118D03*
X00259Y00068D03*
Y00101D03*
X00062Y00233D03*
X00294Y00125D03*
G54D56*
X-00214Y00159D03*
G54D57*
X0007Y-0007D03*
X00023D03*
X-00023D03*
X-0007D03*
X0007Y-00023D03*
X00023D03*
X-00023D03*
X-0007D03*
X0007Y00023D03*
X00023D03*
X-00023D03*
X-0007D03*
X0007Y0007D03*
X00023D03*
X-00023D03*
X-0007D03*
G54D58*
X-00422Y-00135D03*
Y-00241D03*
X-00442Y00167D03*
Y00061D03*
M02*