%FSTAX23Y23*%
%MOIN*%
%SFA1B1*%

%IPPOS*%
%ADD9500C,0.011811*%
%ADD9501C,0.012205*%
%ADD9502C,0.012992*%
%ADD9503C,0.023622*%
%ADD9504C,0.035433*%
%LNfinal_1_board-1*%
%LPD*%
G54D9500*
X-00027Y-00257D03*
X0015Y-00257D03*
X00333Y-00262D03*
X00485D03*
X00605Y-00261D03*
X-00188Y-00258D03*
X-00316Y-00262D03*
X-00527Y-00255D03*
X-00531Y-00169D03*
X-00477Y-00044D03*
X-00516Y00059D03*
X-00531Y0013D03*
X-00505Y00238D03*
X-00507Y00342D03*
X-00527Y00472D03*
X-00525Y00561D03*
X-00392Y00555D03*
X-00257Y00561D03*
X-00294Y00327D03*
X-00279Y00231D03*
X-00271Y00116D03*
X-00305Y00081D03*
X-00311Y-00013D03*
X-00345Y-00105D03*
X-00357Y00375D03*
X-00109Y00287D03*
X-00117Y00227D03*
X-00125Y00158D03*
X-00018Y00191D03*
X00065Y00231D03*
X00104D03*
X00159D03*
X00194D03*
X00235Y00238D03*
X00268Y00287D03*
X00318Y00237D03*
X00368Y00303D03*
X00414Y00307D03*
X00464Y00306D03*
X00503Y00242D03*
X00496Y00188D03*
Y00146D03*
X00468Y00112D03*
X00438Y00081D03*
X00394Y0004D03*
X00348Y00029D03*
X0026Y00028D03*
X00259Y00068D03*
Y00103D03*
X00292Y00122D03*
X00333Y00125D03*
X00342Y-0007D03*
X00401Y-00068D03*
X00468Y-00033D03*
X0052Y0002D03*
X00572Y00066D03*
X00596Y001D03*
X00598Y00146D03*
Y00188D03*
X00588Y00244D03*
X00594Y00306D03*
X00346Y00421D03*
X00344Y00475D03*
X00344Y00556D03*
X00259Y0053D03*
X00209Y00521D03*
X00176Y00555D03*
X0017Y00479D03*
X00091Y00561D03*
X-00018Y00546D03*
X00065Y00291D03*
X00131Y00201D03*
X00205Y00016D03*
X00201Y-00049D03*
X00253Y-0007D03*
X00609Y-00047D03*
Y-00157D03*
X-00092Y-00192D03*
X-00131D03*
X-00117Y-00118D03*
G54D9501*
X00131Y00157D03*
G54D9502*
X-0007Y-0007D03*
X-00023D03*
Y-00023D03*
X-0007D03*
Y00023D03*
Y0007D03*
X-00023D03*
Y00023D03*
X00023D03*
Y0007D03*
X0007D03*
Y00023D03*
Y-00023D03*
X00023D03*
Y-0007D03*
X0007D03*
G54D9503*
X-00372Y-00164D03*
X-00322D03*
X-00272D03*
X-00222D03*
X00164D03*
X00214D03*
X00264D03*
X00314D03*
G54D9504*
X-00505Y00179D03*
Y00407D03*
X-00253D03*
Y00179D03*
M02*